<svg width="2562" height="975" viewBox="0 0 2562 975" fill="none" xmlns="http://www.w3.org/2000/svg">
<mask id="path-1-inside-1" fill="white">
<rect width="498" height="907" rx="19"/>
</mask>
<rect width="498" height="907" rx="19" stroke="white" stroke-width="66" mask="url(#path-1-inside-1)"/>
<mask id="path-2-inside-2" fill="white">
<rect y="431" width="498" height="476" rx="19"/>
</mask>
<rect y="431" width="498" height="476" rx="19" stroke="white" stroke-width="66" mask="url(#path-2-inside-2)"/>
<rect x="240" y="31" width="18" height="867" rx="9" stroke="white" stroke-width="18"/>
<path d="M656.848 434.376H601.088V384.6H776.8V434.376H721.04V575H656.848V434.376ZM894.929 423.496C913.243 423.496 927.931 429.027 938.993 440.088C950.235 451.149 955.857 467.832 955.857 490.136V575H894.385V500.744C894.385 483.699 888.31 475.176 876.161 475.176C869.27 475.176 863.649 477.624 859.297 482.52C855.126 487.235 853.041 494.76 853.041 505.096V575H791.569V373.176H853.041V438.184C864.465 428.392 878.427 423.496 894.929 423.496ZM1143.51 500.472C1143.51 501.379 1143.24 506.184 1142.7 514.888H1039.34C1041.51 520.509 1045.14 524.861 1050.22 527.944C1055.29 530.845 1061.64 532.296 1069.26 532.296C1075.79 532.296 1081.23 531.48 1085.58 529.848C1090.11 528.216 1095.01 525.405 1100.27 521.416L1132.36 553.784C1117.85 569.741 1096.19 577.72 1067.35 577.72C1049.4 577.72 1033.63 574.456 1020.03 567.928C1006.43 561.219 995.908 551.971 988.473 540.184C981.039 528.397 977.321 515.16 977.321 500.472C977.321 485.603 980.948 472.365 988.201 460.76C995.636 448.973 1005.7 439.816 1018.39 433.288C1031.27 426.76 1045.68 423.496 1061.64 423.496C1076.69 423.496 1090.38 426.488 1102.71 432.472C1115.23 438.456 1125.11 447.251 1132.36 458.856C1139.8 470.461 1143.51 484.333 1143.51 500.472ZM1062.19 465.384C1055.84 465.384 1050.58 467.107 1046.41 470.552C1042.24 473.997 1039.52 478.893 1038.25 485.24H1086.12C1084.85 479.075 1082.13 474.269 1077.96 470.824C1073.79 467.197 1068.53 465.384 1062.19 465.384ZM1556.17 384.6L1495.24 575H1426.43L1395.69 473.272L1363.32 575H1294.51L1233.58 384.6H1299.68L1332.86 492.856L1367.95 384.6H1426.97L1460.16 494.216L1495.24 384.6H1556.17ZM1573.83 426.216H1635.31V575H1573.83V426.216ZM1604.57 414.248C1593.51 414.248 1584.53 411.347 1577.64 405.544C1570.93 399.56 1567.58 392.035 1567.58 382.968C1567.58 373.901 1570.93 366.467 1577.64 360.664C1584.53 354.68 1593.51 351.688 1604.57 351.688C1615.81 351.688 1624.79 354.499 1631.5 360.12C1638.21 365.741 1641.56 372.995 1641.56 381.88C1641.56 391.309 1638.21 399.107 1631.5 405.272C1624.79 411.256 1615.81 414.248 1604.57 414.248ZM1765.91 423.496C1784.23 423.496 1798.92 429.027 1809.98 440.088C1821.22 451.149 1826.84 467.832 1826.84 490.136V575H1765.37V500.744C1765.37 483.699 1759.29 475.176 1747.15 475.176C1740.25 475.176 1734.63 477.624 1730.28 482.52C1726.11 487.235 1724.03 494.76 1724.03 505.096V575H1662.55V426.216H1721.03V440.904C1726.84 435.101 1733.55 430.749 1741.16 427.848C1748.78 424.947 1757.03 423.496 1765.91 423.496ZM2020.75 373.176V575H1962.27V562.76C1953.39 572.733 1939.79 577.72 1921.47 577.72C1908.42 577.72 1896.36 574.637 1885.3 568.472C1874.42 562.125 1865.71 553.059 1859.19 541.272C1852.84 529.485 1849.67 515.885 1849.67 500.472C1849.67 485.059 1852.84 471.549 1859.19 459.944C1865.71 448.157 1874.42 439.181 1885.3 433.016C1896.36 426.669 1908.42 423.496 1921.47 423.496C1937.98 423.496 1950.58 427.757 1959.28 436.28V373.176H2020.75ZM1936.16 529.848C1943.23 529.848 1949.04 527.309 1953.57 522.232C1958.1 516.973 1960.37 509.72 1960.37 500.472C1960.37 491.224 1958.1 484.061 1953.57 478.984C1949.04 473.907 1943.23 471.368 1936.16 471.368C1929.09 471.368 1923.29 473.907 1918.75 478.984C1914.22 484.061 1911.95 491.224 1911.95 500.472C1911.95 509.72 1914.22 516.973 1918.75 522.232C1923.29 527.309 1929.09 529.848 1936.16 529.848ZM2126.58 577.72C2110.08 577.72 2095.21 574.456 2081.98 567.928C2068.92 561.219 2058.67 552.061 2051.24 540.456C2043.8 528.669 2040.09 515.341 2040.09 500.472C2040.09 485.603 2043.8 472.365 2051.24 460.76C2058.67 448.973 2068.92 439.816 2081.98 433.288C2095.21 426.76 2110.08 423.496 2126.58 423.496C2143.27 423.496 2158.14 426.76 2171.19 433.288C2184.43 439.816 2194.67 448.973 2201.93 460.76C2209.36 472.365 2213.08 485.603 2213.08 500.472C2213.08 515.341 2209.36 528.669 2201.93 540.456C2194.67 552.061 2184.43 561.219 2171.19 567.928C2158.14 574.456 2143.27 577.72 2126.58 577.72ZM2126.58 529.848C2133.66 529.848 2139.46 527.309 2143.99 522.232C2148.52 516.973 2150.79 509.72 2150.79 500.472C2150.79 491.224 2148.52 484.061 2143.99 478.984C2139.46 473.907 2133.66 471.368 2126.58 471.368C2119.51 471.368 2113.71 473.907 2109.18 478.984C2104.64 484.061 2102.38 491.224 2102.38 500.472C2102.38 509.72 2104.64 516.973 2109.18 522.232C2113.71 527.309 2119.51 529.848 2126.58 529.848ZM2482.11 426.216L2430.43 575H2370.59L2348.01 506.184L2324.62 575H2264.78L2213.1 426.216H2271.31L2296.88 504.824L2323.53 426.216H2375.76L2401.6 505.64L2428.25 426.216H2482.11ZM713.968 911.352C693.84 911.352 675.707 907.181 659.568 898.84C643.429 890.317 630.736 878.531 621.488 863.48C612.421 848.248 607.888 831.021 607.888 811.8C607.888 792.579 612.421 775.443 621.488 760.392C630.736 745.16 643.429 733.373 659.568 725.032C675.707 716.509 693.84 712.248 713.968 712.248C732.464 712.248 748.965 715.512 763.472 722.04C777.979 728.568 789.947 737.997 799.376 750.328L758.848 786.504C747.061 771.635 733.189 764.2 717.232 764.2C703.813 764.2 693.024 768.552 684.864 777.256C676.704 785.779 672.624 797.293 672.624 811.8C672.624 826.307 676.704 837.912 684.864 846.616C693.024 855.139 703.813 859.4 717.232 859.4C733.189 859.4 747.061 851.965 758.848 837.096L799.376 873.272C789.947 885.603 777.979 895.032 763.472 901.56C748.965 908.088 732.464 911.352 713.968 911.352ZM890.63 909.72C874.129 909.72 859.259 906.456 846.022 899.928C832.966 893.219 822.721 884.061 815.286 872.456C807.851 860.669 804.134 847.341 804.134 832.472C804.134 817.603 807.851 804.365 815.286 792.76C822.721 780.973 832.966 771.816 846.022 765.288C859.259 758.76 874.129 755.496 890.63 755.496C907.313 755.496 922.182 758.76 935.238 765.288C948.475 771.816 958.721 780.973 965.974 792.76C973.409 804.365 977.126 817.603 977.126 832.472C977.126 847.341 973.409 860.669 965.974 872.456C958.721 884.061 948.475 893.219 935.238 899.928C922.182 906.456 907.313 909.72 890.63 909.72ZM890.63 861.848C897.702 861.848 903.505 859.309 908.038 854.232C912.571 848.973 914.838 841.72 914.838 832.472C914.838 823.224 912.571 816.061 908.038 810.984C903.505 805.907 897.702 803.368 890.63 803.368C883.558 803.368 877.755 805.907 873.222 810.984C868.689 816.061 866.422 823.224 866.422 832.472C866.422 841.72 868.689 848.973 873.222 854.232C877.755 859.309 883.558 861.848 890.63 861.848ZM1193.29 755.496C1211.25 755.496 1225.57 761.027 1236.27 772.088C1247.15 783.149 1252.59 799.832 1252.59 822.136V907H1191.12V832.744C1191.12 815.699 1185.59 807.176 1174.53 807.176C1168.72 807.176 1164.01 809.352 1160.38 813.704C1156.94 818.056 1155.21 824.947 1155.21 834.376V907H1093.74V832.744C1093.74 815.699 1088.21 807.176 1077.15 807.176C1071.35 807.176 1066.63 809.352 1063.01 813.704C1059.56 818.056 1057.84 824.947 1057.84 834.376V907H996.366V758.216H1054.85V772.088C1065.91 761.027 1079.96 755.496 1097.01 755.496C1106.98 755.496 1115.95 757.4 1123.93 761.208C1131.91 764.835 1138.44 770.456 1143.52 778.072C1149.5 770.819 1156.75 765.288 1165.28 761.48C1173.8 757.491 1183.14 755.496 1193.29 755.496ZM1378.54 755.496C1391.59 755.496 1403.56 758.669 1414.44 765.016C1425.5 771.181 1434.21 780.157 1440.55 791.944C1447.08 803.731 1450.34 817.331 1450.34 832.744C1450.34 848.157 1447.08 861.757 1440.55 873.544C1434.21 885.149 1425.5 894.125 1414.44 900.472C1403.56 906.637 1391.59 909.72 1378.54 909.72C1362.03 909.72 1349.43 905.459 1340.73 896.936V959.768H1279.26V758.216H1337.74V770.456C1346.62 760.483 1360.22 755.496 1378.54 755.496ZM1363.85 861.848C1370.92 861.848 1376.72 859.309 1381.26 854.232C1385.79 849.155 1388.06 841.992 1388.06 832.744C1388.06 823.496 1385.79 816.333 1381.26 811.256C1376.72 805.997 1370.92 803.368 1363.85 803.368C1356.78 803.368 1350.97 805.997 1346.44 811.256C1341.91 816.333 1339.64 823.496 1339.64 832.744C1339.64 841.992 1341.91 849.155 1346.44 854.232C1350.97 859.309 1356.78 861.848 1363.85 861.848ZM1532.63 755.496C1558.74 755.496 1578.69 761.389 1592.47 773.176C1606.25 784.781 1613.14 802.733 1613.14 827.032V907H1556.02V887.416C1548.95 902.285 1534.9 909.72 1513.86 909.72C1502.08 909.72 1492.01 907.725 1483.67 903.736C1475.51 899.565 1469.25 894.035 1464.9 887.144C1460.73 880.072 1458.65 872.184 1458.65 863.48C1458.65 848.792 1464.27 837.64 1475.51 830.024C1486.75 822.408 1503.8 818.6 1526.65 818.6H1551.4C1549.4 806.995 1540.07 801.192 1523.38 801.192C1516.67 801.192 1509.87 802.28 1502.98 804.456C1496.09 806.451 1490.2 809.261 1485.3 812.888L1465.72 772.36C1474.24 767.101 1484.49 763.021 1496.45 760.12C1508.6 757.037 1520.66 755.496 1532.63 755.496ZM1532.36 872.728C1536.71 872.728 1540.61 871.549 1544.05 869.192C1547.5 866.835 1550.04 863.299 1551.67 858.584V848.248H1536.44C1523.93 848.248 1517.67 852.419 1517.67 860.76C1517.67 864.205 1518.94 867.107 1521.48 869.464C1524.2 871.64 1527.83 872.728 1532.36 872.728ZM1743.07 755.496C1761.38 755.496 1776.07 761.027 1787.13 772.088C1798.38 783.149 1804 799.832 1804 822.136V907H1742.53V832.744C1742.53 815.699 1736.45 807.176 1724.3 807.176C1717.41 807.176 1711.79 809.624 1707.44 814.52C1703.27 819.235 1701.18 826.76 1701.18 837.096V907H1639.71V758.216H1698.19V772.904C1703.99 767.101 1710.7 762.749 1718.32 759.848C1725.93 756.947 1734.18 755.496 1743.07 755.496ZM1993.69 758.216L1932.49 909.992C1924.69 929.395 1914.99 942.995 1903.38 950.792C1891.78 958.589 1877.54 962.488 1860.68 962.488C1852.34 962.488 1843.9 961.219 1835.38 958.68C1827.04 956.323 1820.42 953.149 1815.53 949.16L1835.93 907C1839.01 909.357 1842.45 911.261 1846.26 912.712C1850.25 914.163 1854.06 914.888 1857.69 914.888C1864.39 914.888 1869.47 912.893 1872.92 908.904L1810.36 758.216H1873.46L1904.2 837.912L1935.48 758.216H1993.69Z" fill="white"/>
</svg>
